<svg id="visual" viewBox="0 0 900 450" width="900" height="450" xmlns="http://www.w3.org/2000/svg" xmlns:xlink="http://www.w3.org/1999/xlink" version="1.1"><rect x="0" y="0" width="900" height="450" fill="#002233"></rect><path d="M0 350L16.7 356.2C33.3 362.3 66.7 374.7 100 377.8C133.3 381 166.7 375 200 364.7C233.3 354.3 266.7 339.7 300 335.5C333.3 331.3 366.7 337.7 400 342.8C433.3 348 466.7 352 500 350.5C533.3 349 566.7 342 600 335.5C633.3 329 666.7 323 700 329.3C733.3 335.7 766.7 354.3 800 356C833.3 357.7 866.7 342.3 883.3 334.7L900 327L900 451L883.3 451C866.7 451 833.3 451 800 451C766.7 451 733.3 451 700 451C666.7 451 633.3 451 600 451C566.7 451 533.3 451 500 451C466.7 451 433.3 451 400 451C366.7 451 333.3 451 300 451C266.7 451 233.3 451 200 451C166.7 451 133.3 451 100 451C66.7 451 33.3 451 16.7 451L0 451Z" fill="#0066FF" stroke-linecap="round" stroke-linejoin="miter"></path></svg>